# xmcd CD database file
#
# Track frame offsets:
#	150
#	38950
#	65595
#	90402
#
# Disc length: 1414 seconds
#
# Revision: 0
# Processed by: cddbd v1.5.2PL0 Copyright (c) Steve Scherf et al.
# Submitted via: CDex 1.83
#
DISCID=2c058404
DTITLE=Charles Mingus - Les batteurs de sa vie cd jazz magazine
DYEAR=2017
DGENRE=Jazz
TTITLE0=Charles Mingus - Reincarnation of a Love Bird
TTITLE1=	 - Dizzy Moods
TTITLE2=	 - Conversation
TTITLE3=	 - Slippers
EXTD=YEAR: 2017
EXTT0=
EXTT1=
EXTT2=
EXTT3=
PLAYORDER=
